
<svg xmlns="http://www.w3.org/2000/svg" version="1.1" xmlns:xlink="http://www.w3.org/1999/xlink" preserveAspectRatio="none" x="0px" y="0px" width="51px" height="51px" viewBox="0 0 51 51">
<defs>
<g id="Symbol_1_0_Layer0_0_FILL">
<path fill="#FFFFFF" stroke="none" d="
M 74 38.05
Q 74 23.05 59 23.05
L 39 23.05
Q 24 23.05 24 38.05
L 24 58.05
Q 24 73.05 39 73.05
L 59 73.05
Q 74 73.05 74 58.05
L 74 38.05 Z"/>
</g>

<path id="Symbol_1_0_Layer0_0_1_STROKES" stroke="#000000" stroke-width="1" stroke-linejoin="round" stroke-linecap="round" fill="none" d="
M 39 23.05
L 59 23.05
Q 74 23.05 74 38.05
L 74 58.05
Q 74 73.05 59 73.05
L 39 73.05
Q 24 73.05 24 58.05
L 24 38.05
Q 24 23.05 39 23.05 Z"/>
</defs>

<g transform="matrix( 1, 0, 0, 1, 0.6,0.6) ">
<g transform="matrix( 1, 0, 0, 1, -24,-23.05) ">
<use xlink:href="#Symbol_1_0_Layer0_0_FILL"/>

<use xlink:href="#Symbol_1_0_Layer0_0_1_STROKES"/>
</g>

<g transform="matrix( 1, 0, 0, 1, 11.05,23.45) ">
<clipPath id="Mask_Mask_1">
<rect x="-2" y="-2" width="40.95" height="28.55" fill="#FFFFFF" stroke="none"/>
</clipPath>

<text clip-path="url(#Mask_Mask_1)" writing-mode="lr"><tspan x="0" y="19.9" baseline-shift="0%" font-family="Arial" font-size="22" fill="#000000" xml:space="preserve">p4p</tspan></text>
</g>
</g>
</svg>
